<svg width="79" height="29" viewBox="0 0 79 29" fill="none" xmlns="http://www.w3.org/2000/svg">
<rect width="79" height="29" rx="3" fill="#C4C4C4"/>
<path d="M55 9.4H47V15C47.0029 15.7076 47.2989 16.3946 47.8417 16.9533C48.3845 17.5121 49.1435 17.9111 50 18.088V23.8H49C48.7348 23.8 48.4804 23.8843 48.2929 24.0343C48.1054 24.1843 48 24.3878 48 24.6C48 24.8122 48.1054 25.0157 48.2929 25.1657C48.4804 25.3157 48.7348 25.4 49 25.4H53C53.2652 25.4 53.5196 25.3157 53.7071 25.1657C53.8946 25.0157 54 24.8122 54 24.6C54 24.3878 53.8946 24.1843 53.7071 24.0343C53.5196 23.8843 53.2652 23.8 53 23.8H52V18.088C52.8565 17.9111 53.6155 17.5121 54.1583 16.9533C54.7011 16.3946 54.9971 15.7076 55 15V9.4ZM53 15C53 15.4243 52.7893 15.8313 52.4142 16.1314C52.0391 16.4314 51.5304 16.6 51 16.6C50.4696 16.6 49.9609 16.4314 49.5858 16.1314C49.2107 15.8313 49 15.4243 49 15V11H53V15ZM38 7V6.2C38.2652 6.2 38.5196 6.11571 38.7071 5.96569C38.8946 5.81566 39 5.61217 39 5.4C39 5.18783 38.8946 4.98434 38.7071 4.83431C38.5196 4.68429 38.2652 4.6 38 4.6V3.8C38 3.58783 37.8946 3.38434 37.7071 3.23431C37.5196 3.08429 37.2652 3 37 3H35C34.7348 3 34.4804 3.08429 34.2929 3.23431C34.1054 3.38434 34 3.58783 34 3.8V4.6C33.7348 4.6 33.4804 4.68429 33.2929 4.83431C33.1054 4.98434 33 5.18783 33 5.4C33 5.61217 33.1054 5.81566 33.2929 5.96569C33.4804 6.11571 33.7348 6.2 34 6.2V7C34 9.288 29 11.912 29 14.2V23.8C29 24.2243 29.2107 24.6313 29.5858 24.9314C29.9609 25.2314 30.4696 25.4 31 25.4H41C41.5153 25.364 41.9982 25.1838 42.364 24.8912C42.7298 24.5986 42.9549 24.2122 43 23.8V14.2C43 12.04 38 9.16 38 7ZM36 22.2C34.6739 22.2 33.4021 21.7786 32.4645 21.0284C31.5268 20.2783 31 19.2609 31 18.2C31 17.1391 31.5268 16.1217 32.4645 15.3716C33.4021 14.6214 34.6739 14.2 36 14.2C37.3261 14.2 38.5979 14.6214 39.5355 15.3716C40.4732 16.1217 41 17.1391 41 18.2C41 19.2609 40.4732 20.2783 39.5355 21.0284C38.5979 21.7786 37.3261 22.2 36 22.2Z" fill="black" fill-opacity="0.38"/>
<path d="M24.9902 20V11.4688H27.7793C28.7051 11.4688 29.4004 11.6602 29.8652 12.043C30.334 12.4258 30.5684 12.9922 30.5684 13.7422C30.5684 14.1406 30.4551 14.4941 30.2285 14.8027C30.002 15.1074 29.6934 15.3438 29.3027 15.5117C29.7637 15.6406 30.127 15.8867 30.3926 16.25C30.6621 16.6094 30.7969 17.0391 30.7969 17.5391C30.7969 18.3047 30.5488 18.9062 30.0527 19.3438C29.5566 19.7812 28.8555 20 27.9492 20H24.9902ZM26.1152 16.0098V19.0801H27.9727C28.4961 19.0801 28.9082 18.9453 29.209 18.6758C29.5137 18.4023 29.666 18.0273 29.666 17.5508C29.666 16.5234 29.1074 16.0098 27.9902 16.0098H26.1152ZM26.1152 15.1074H27.8145C28.3066 15.1074 28.6992 14.9844 28.9922 14.7383C29.2891 14.4922 29.4375 14.1582 29.4375 13.7363C29.4375 13.2676 29.3008 12.9277 29.0273 12.7168C28.7539 12.502 28.3379 12.3945 27.7793 12.3945H26.1152V15.1074ZM36.2109 20C36.1484 19.875 36.0977 19.6523 36.0586 19.332C35.5547 19.8555 34.9531 20.1172 34.2539 20.1172C33.6289 20.1172 33.1152 19.9414 32.7129 19.5898C32.3145 19.2344 32.1152 18.7852 32.1152 18.2422C32.1152 17.582 32.3652 17.0703 32.8652 16.707C33.3691 16.3398 34.0762 16.1562 34.9863 16.1562H36.041V15.6582C36.041 15.2793 35.9277 14.9785 35.7012 14.7559C35.4746 14.5293 35.1406 14.416 34.6992 14.416C34.3125 14.416 33.9883 14.5137 33.7266 14.709C33.4648 14.9043 33.334 15.1406 33.334 15.418H32.2441C32.2441 15.1016 32.3555 14.7969 32.5781 14.5039C32.8047 14.207 33.1094 13.9727 33.4922 13.8008C33.8789 13.6289 34.3027 13.543 34.7637 13.543C35.4941 13.543 36.0664 13.7266 36.4805 14.0938C36.8945 14.457 37.1094 14.959 37.125 15.5996V18.5176C37.125 19.0996 37.1992 19.5625 37.3477 19.9062V20H36.2109ZM34.4121 19.1738C34.752 19.1738 35.0742 19.0859 35.3789 18.9102C35.6836 18.7344 35.9043 18.5059 36.041 18.2246V16.9238H35.1914C33.8633 16.9238 33.1992 17.3125 33.1992 18.0898C33.1992 18.4297 33.3125 18.6953 33.5391 18.8867C33.7656 19.0781 34.0566 19.1738 34.4121 19.1738ZM41.8887 14.6328C41.7246 14.6055 41.5469 14.5918 41.3555 14.5918C40.6445 14.5918 40.1621 14.8945 39.9082 15.5V20H38.8242V13.6602H39.8789L39.8965 14.3926C40.252 13.8262 40.7559 13.543 41.4082 13.543C41.6191 13.543 41.7793 13.5703 41.8887 13.625V14.6328ZM45.4043 20.1172C44.5449 20.1172 43.8457 19.8359 43.3066 19.2734C42.7676 18.707 42.498 17.9512 42.498 17.0059V16.8066C42.498 16.1777 42.6172 15.6172 42.8555 15.125C43.0977 14.6289 43.4336 14.2422 43.8633 13.9648C44.2969 13.6836 44.7656 13.543 45.2695 13.543C46.0938 13.543 46.7344 13.8145 47.1914 14.3574C47.6484 14.9004 47.877 15.6777 47.877 16.6895V17.1406H43.582C43.5977 17.7656 43.7793 18.2715 44.127 18.6582C44.4785 19.041 44.9238 19.2324 45.4629 19.2324C45.8457 19.2324 46.1699 19.1543 46.4355 18.998C46.7012 18.8418 46.9336 18.6348 47.1328 18.377L47.7949 18.8926C47.2637 19.709 46.4668 20.1172 45.4043 20.1172ZM45.2695 14.4336C44.832 14.4336 44.4648 14.5938 44.168 14.9141C43.8711 15.2305 43.6875 15.6758 43.6172 16.25H46.793V16.168C46.7617 15.6172 46.6133 15.1914 46.3477 14.8906C46.082 14.5859 45.7227 14.4336 45.2695 14.4336ZM52.8281 18.3184C52.8281 18.0254 52.7168 17.7988 52.4941 17.6387C52.2754 17.4746 51.8906 17.334 51.3398 17.2168C50.793 17.0996 50.3574 16.959 50.0332 16.7949C49.7129 16.6309 49.4746 16.4355 49.3184 16.209C49.166 15.9824 49.0898 15.7129 49.0898 15.4004C49.0898 14.8809 49.3086 14.4414 49.7461 14.082C50.1875 13.7227 50.75 13.543 51.4336 13.543C52.1523 13.543 52.7344 13.7285 53.1797 14.0996C53.6289 14.4707 53.8535 14.9453 53.8535 15.5234H52.7637C52.7637 15.2266 52.6367 14.9707 52.3828 14.7559C52.1328 14.541 51.8164 14.4336 51.4336 14.4336C51.0391 14.4336 50.7305 14.5195 50.5078 14.6914C50.2852 14.8633 50.1738 15.0879 50.1738 15.3652C50.1738 15.627 50.2773 15.8242 50.4844 15.957C50.6914 16.0898 51.0645 16.2168 51.6035 16.3379C52.1465 16.459 52.5859 16.6035 52.9219 16.7715C53.2578 16.9395 53.5059 17.1426 53.666 17.3809C53.8301 17.6152 53.9121 17.9023 53.9121 18.2422C53.9121 18.8086 53.6855 19.2637 53.2324 19.6074C52.7793 19.9473 52.1914 20.1172 51.4688 20.1172C50.9609 20.1172 50.5117 20.0273 50.1211 19.8477C49.7305 19.668 49.4238 19.418 49.2012 19.0977C48.9824 18.7734 48.873 18.4238 48.873 18.0488H49.957C49.9766 18.4121 50.1211 18.7012 50.3906 18.916C50.6641 19.127 51.0234 19.2324 51.4688 19.2324C51.8789 19.2324 52.207 19.1504 52.4531 18.9863C52.7031 18.8184 52.8281 18.5957 52.8281 18.3184Z" fill="black"/>
</svg>
