<svg width="69" height="47" viewBox="0 0 69 47" fill="none" xmlns="http://www.w3.org/2000/svg">
<path d="M59.0295 11.0193C59.2702 11.0193 59.5012 10.9419 59.6714 10.8042C59.8417 10.6665 59.9374 10.4797 59.9374 10.2849V7.83952C59.9364 7.20172 59.6227 6.59026 59.0652 6.13926C58.5076 5.68826 57.7516 5.43455 56.9631 5.43377H52.0841L50.971 2.77687C50.8953 2.59619 50.7357 2.4464 50.5259 2.35923C50.3162 2.27206 50.0727 2.25434 49.847 2.30982L23.4218 8.8074C23.2031 8.87195 23.0233 9.00186 22.9195 9.1704C22.8156 9.33894 22.7956 9.53328 22.8635 9.7134C22.9315 9.89352 23.0822 10.0457 23.2847 10.1386C23.4872 10.2316 23.726 10.2582 23.952 10.213L49.5347 3.921L51.9733 9.74444C52.0506 9.92888 52.2153 10.0809 52.4312 10.1671C52.6471 10.2534 52.8965 10.2667 53.1245 10.2041C53.3525 10.1416 53.5405 10.0084 53.6471 9.83377C53.7537 9.65915 53.7701 9.45742 53.6929 9.27298L52.6996 6.90101H56.9649C57.6041 6.90101 58.1234 7.32107 58.1234 7.83805V10.2849C58.1216 10.6903 58.5283 11.0193 59.0295 11.0193Z" fill="black"/>
<path d="M66.2763 22.0325C66.0355 22.0325 65.8046 22.1099 65.6343 22.2476C65.4641 22.3853 65.3684 22.5721 65.3684 22.7669C65.3684 22.9617 65.4641 23.1484 65.6343 23.2862C65.8046 23.4239 66.0355 23.5013 66.2763 23.5013C66.9137 23.5013 67.1842 23.7201 67.1842 24.2356V33.0479C67.1842 33.5634 66.9137 33.7822 66.2763 33.7822H51.75C51.1127 33.7822 50.8421 33.5634 50.8421 33.0479V25.7043C50.8421 25.1888 51.1127 24.97 51.75 24.97H62.6447C62.8855 24.97 63.1165 24.8926 63.2867 24.7549C63.457 24.6172 63.5526 24.4304 63.5526 24.2356V15.4233C63.5526 14.0853 62.4831 13.2203 60.8289 13.2203H5.44737C3.2085 13.2203 1.81579 12.0938 1.81579 10.2829C1.81579 8.47193 3.2085 7.34543 5.44737 7.34543H14.6643L9.16974 8.8112C9.0524 8.83857 8.9431 8.88481 8.84837 8.94714C8.75364 9.00947 8.67543 9.08662 8.61842 9.17397C8.56141 9.26132 8.52677 9.35708 8.51658 9.45551C8.50638 9.55394 8.52084 9.65302 8.55909 9.74682C8.59734 9.84063 8.6586 9.92722 8.73919 10.0014C8.81978 10.0756 8.91805 10.1359 9.02812 10.1787C9.13819 10.2215 9.2578 10.2459 9.37979 10.2504C9.50177 10.2549 9.62364 10.2395 9.73808 10.205L42.6384 1.4324C42.7516 1.40211 42.8564 1.35409 42.9467 1.29105C43.037 1.22801 43.1111 1.15121 43.1647 1.06501C43.2184 0.978819 43.2505 0.884927 43.2592 0.788697C43.268 0.692468 43.2532 0.595785 43.2158 0.50417C43.1784 0.412555 43.119 0.327802 43.041 0.254748C42.9631 0.181695 42.8681 0.121773 42.7616 0.0784034C42.655 0.0350338 42.5389 0.00906598 42.42 0.00198258C42.301 -0.00510081 42.1815 0.00683895 42.0682 0.0371202L20.0972 5.89728C20.0554 5.8914 20.0173 5.87672 19.9737 5.87672H5.44737C2.18984 5.87672 0 7.64798 0 10.2829V42.5945C0 45.2294 2.18984 47.0006 5.44737 47.0006H60.8289C62.4831 47.0006 63.5526 46.1356 63.5526 44.7976V37.454C63.5526 37.2592 63.457 37.0725 63.2867 36.9347C63.1165 36.797 62.8855 36.7197 62.6447 36.7197C62.4039 36.7197 62.173 36.797 62.0028 36.9347C61.8325 37.0725 61.7368 37.2592 61.7368 37.454V44.7976C61.7368 45.3131 61.4663 45.5319 60.8289 45.5319H5.44737C3.2085 45.5319 1.81579 44.4054 1.81579 42.5945V13.6785C2.74729 14.3145 3.98021 14.689 5.44737 14.689H60.8289C61.4663 14.689 61.7368 14.9078 61.7368 15.4233V23.5013H51.75C50.0958 23.5013 49.0263 24.3663 49.0263 25.7043V33.0479C49.0263 34.3859 50.0958 35.2509 51.75 35.2509H66.2763C67.9305 35.2509 69 34.3859 69 33.0479V24.2356C69 22.8976 67.9305 22.0325 66.2763 22.0325Z" fill="black"/>
<path d="M58.1053 30.8466C59.1081 30.8466 59.9211 30.189 59.9211 29.3779C59.9211 28.5667 59.1081 27.9092 58.1053 27.9092C57.1024 27.9092 56.2895 28.5667 56.2895 29.3779C56.2895 30.189 57.1024 30.8466 58.1053 30.8466Z" fill="black"/>
</svg>
