<svg width="79" height="29" viewBox="0 0 79 29" fill="none" xmlns="http://www.w3.org/2000/svg">
<rect width="79" height="29" rx="3" fill="#C4C4C4"/>
<path d="M47 20.5217V5.73913C47 4.78261 45.9312 4 44.625 4H30.375C29.0688 4 28 4.78261 28 5.73913V22.2609C28 23.2174 29.0688 24 30.375 24H44.625C45.7282 24 47 24 47 23.1304V22.6957H30.9688C30.3156 22.6957 29.7812 22.3043 29.7812 21.8261V20.5217H47ZM30.9688 7.47826C30.9688 7.23913 31.2359 7.04348 31.5625 7.04348H43.4375C43.7641 7.04348 44.0312 7.23913 44.0312 7.47826V8.34783C44.0312 8.58696 43.7641 8.78261 43.4375 8.78261H31.5625C31.2359 8.78261 30.9688 8.58696 30.9688 8.34783V7.47826ZM30.9688 10.9565C30.9688 10.7174 31.2359 10.5217 31.5625 10.5217H43.4375C43.7641 10.5217 44.0312 10.7174 44.0312 10.9565V11.8261C44.0312 12.0652 43.7641 12.2609 43.4375 12.2609H31.5625C31.2359 12.2609 30.9688 12.0652 30.9688 11.8261V10.9565Z" fill="black" fill-opacity="0.38"/>
<path d="M23.8125 14.0566H20.1152V17.0801H24.4102V18H18.9902V9.46875H24.3516V10.3945H20.1152V13.1367H23.8125V14.0566ZM29.332 16.3184C29.332 16.0254 29.2207 15.7988 28.998 15.6387C28.7793 15.4746 28.3945 15.334 27.8438 15.2168C27.2969 15.0996 26.8613 14.959 26.5371 14.7949C26.2168 14.6309 25.9785 14.4355 25.8223 14.209C25.6699 13.9824 25.5938 13.7129 25.5938 13.4004C25.5938 12.8809 25.8125 12.4414 26.25 12.082C26.6914 11.7227 27.2539 11.543 27.9375 11.543C28.6562 11.543 29.2383 11.7285 29.6836 12.0996C30.1328 12.4707 30.3574 12.9453 30.3574 13.5234H29.2676C29.2676 13.2266 29.1406 12.9707 28.8867 12.7559C28.6367 12.541 28.3203 12.4336 27.9375 12.4336C27.543 12.4336 27.2344 12.5195 27.0117 12.6914C26.7891 12.8633 26.6777 13.0879 26.6777 13.3652C26.6777 13.627 26.7812 13.8242 26.9883 13.957C27.1953 14.0898 27.5684 14.2168 28.1074 14.3379C28.6504 14.459 29.0898 14.6035 29.4258 14.7715C29.7617 14.9395 30.0098 15.1426 30.1699 15.3809C30.334 15.6152 30.416 15.9023 30.416 16.2422C30.416 16.8086 30.1895 17.2637 29.7363 17.6074C29.2832 17.9473 28.6953 18.1172 27.9727 18.1172C27.4648 18.1172 27.0156 18.0273 26.625 17.8477C26.2344 17.668 25.9277 17.418 25.7051 17.0977C25.4863 16.7734 25.377 16.4238 25.377 16.0488H26.4609C26.4805 16.4121 26.625 16.7012 26.8945 16.916C27.168 17.127 27.5273 17.2324 27.9727 17.2324C28.3828 17.2324 28.7109 17.1504 28.957 16.9863C29.207 16.8184 29.332 16.5957 29.332 16.3184ZM34.3711 17.2324C34.7578 17.2324 35.0957 17.1152 35.3848 16.8809C35.6738 16.6465 35.834 16.3535 35.8652 16.002H36.8906C36.8711 16.3652 36.7461 16.7109 36.5156 17.0391C36.2852 17.3672 35.9766 17.6289 35.5898 17.8242C35.207 18.0195 34.8008 18.1172 34.3711 18.1172C33.5078 18.1172 32.8203 17.8301 32.3086 17.2559C31.8008 16.6777 31.5469 15.8887 31.5469 14.8887V14.707C31.5469 14.0898 31.6602 13.541 31.8867 13.0605C32.1133 12.5801 32.4375 12.207 32.8594 11.9414C33.2852 11.6758 33.7871 11.543 34.3652 11.543C35.0762 11.543 35.666 11.7559 36.1348 12.1816C36.6074 12.6074 36.8594 13.1602 36.8906 13.8398H35.8652C35.834 13.4297 35.6777 13.0938 35.3965 12.832C35.1191 12.5664 34.7754 12.4336 34.3652 12.4336C33.8145 12.4336 33.3867 12.6328 33.082 13.0312C32.7812 13.4258 32.6309 13.998 32.6309 14.748V14.9531C32.6309 15.6836 32.7812 16.2461 33.082 16.6406C33.3828 17.0352 33.8125 17.2324 34.3711 17.2324ZM37.8223 14.7715C37.8223 14.1504 37.9434 13.5918 38.1855 13.0957C38.4316 12.5996 38.7715 12.2168 39.2051 11.9473C39.6426 11.6777 40.1406 11.543 40.6992 11.543C41.5625 11.543 42.2598 11.8418 42.791 12.4395C43.3262 13.0371 43.5938 13.832 43.5938 14.8242V14.9004C43.5938 15.5176 43.4746 16.0723 43.2363 16.5645C43.002 17.0527 42.6641 17.4336 42.2227 17.707C41.7852 17.9805 41.2812 18.1172 40.7109 18.1172C39.8516 18.1172 39.1543 17.8184 38.6191 17.2207C38.0879 16.623 37.8223 15.832 37.8223 14.8477V14.7715ZM38.9121 14.9004C38.9121 15.6035 39.0742 16.168 39.3984 16.5938C39.7266 17.0195 40.1641 17.2324 40.7109 17.2324C41.2617 17.2324 41.6992 17.0176 42.0234 16.5879C42.3477 16.1543 42.5098 15.5488 42.5098 14.7715C42.5098 14.0762 42.3438 13.5137 42.0117 13.084C41.6836 12.6504 41.2461 12.4336 40.6992 12.4336C40.1641 12.4336 39.7324 12.6465 39.4043 13.0723C39.0762 13.498 38.9121 14.1074 38.9121 14.9004ZM46.1309 18H45.0469V9H46.1309V18ZM51.7852 18C51.7227 17.875 51.6719 17.6523 51.6328 17.332C51.1289 17.8555 50.5273 18.1172 49.8281 18.1172C49.2031 18.1172 48.6895 17.9414 48.2871 17.5898C47.8887 17.2344 47.6895 16.7852 47.6895 16.2422C47.6895 15.582 47.9395 15.0703 48.4395 14.707C48.9434 14.3398 49.6504 14.1562 50.5605 14.1562H51.6152V13.6582C51.6152 13.2793 51.502 12.9785 51.2754 12.7559C51.0488 12.5293 50.7148 12.416 50.2734 12.416C49.8867 12.416 49.5625 12.5137 49.3008 12.709C49.0391 12.9043 48.9082 13.1406 48.9082 13.418H47.8184C47.8184 13.1016 47.9297 12.7969 48.1523 12.5039C48.3789 12.207 48.6836 11.9727 49.0664 11.8008C49.4531 11.6289 49.877 11.543 50.3379 11.543C51.0684 11.543 51.6406 11.7266 52.0547 12.0938C52.4688 12.457 52.6836 12.959 52.6992 13.5996V16.5176C52.6992 17.0996 52.7734 17.5625 52.9219 17.9062V18H51.7852ZM49.9863 17.1738C50.3262 17.1738 50.6484 17.0859 50.9531 16.9102C51.2578 16.7344 51.4785 16.5059 51.6152 16.2246V14.9238H50.7656C49.4375 14.9238 48.7734 15.3125 48.7734 16.0898C48.7734 16.4297 48.8867 16.6953 49.1133 16.8867C49.3398 17.0781 49.6309 17.1738 49.9863 17.1738ZM58.0898 16.3184C58.0898 16.0254 57.9785 15.7988 57.7559 15.6387C57.5371 15.4746 57.1523 15.334 56.6016 15.2168C56.0547 15.0996 55.6191 14.959 55.2949 14.7949C54.9746 14.6309 54.7363 14.4355 54.5801 14.209C54.4277 13.9824 54.3516 13.7129 54.3516 13.4004C54.3516 12.8809 54.5703 12.4414 55.0078 12.082C55.4492 11.7227 56.0117 11.543 56.6953 11.543C57.4141 11.543 57.9961 11.7285 58.4414 12.0996C58.8906 12.4707 59.1152 12.9453 59.1152 13.5234H58.0254C58.0254 13.2266 57.8984 12.9707 57.6445 12.7559C57.3945 12.541 57.0781 12.4336 56.6953 12.4336C56.3008 12.4336 55.9922 12.5195 55.7695 12.6914C55.5469 12.8633 55.4355 13.0879 55.4355 13.3652C55.4355 13.627 55.5391 13.8242 55.7461 13.957C55.9531 14.0898 56.3262 14.2168 56.8652 14.3379C57.4082 14.459 57.8477 14.6035 58.1836 14.7715C58.5195 14.9395 58.7676 15.1426 58.9277 15.3809C59.0918 15.6152 59.1738 15.9023 59.1738 16.2422C59.1738 16.8086 58.9473 17.2637 58.4941 17.6074C58.041 17.9473 57.4531 18.1172 56.7305 18.1172C56.2227 18.1172 55.7734 18.0273 55.3828 17.8477C54.9922 17.668 54.6855 17.418 54.4629 17.0977C54.2441 16.7734 54.1348 16.4238 54.1348 16.0488H55.2188C55.2383 16.4121 55.3828 16.7012 55.6523 16.916C55.9258 17.127 56.2852 17.2324 56.7305 17.2324C57.1406 17.2324 57.4688 17.1504 57.7148 16.9863C57.9648 16.8184 58.0898 16.5957 58.0898 16.3184Z" fill="black"/>
</svg>
