<svg id="Layer_1" enable-background="new 0 0 511.495 511.495" height="512" viewBox="0 0 511.495 511.495" width="512" xmlns="http://www.w3.org/2000/svg"><path d="m392.904 5.521c-3.792-4.376-9.653-6.36-15.323-5.191-44.767 9.234-86.919 30.223-121.825 61.253-34.772-30.903-76.913-51.985-121.843-61.253-5.669-1.168-11.53.815-15.323 5.191-78.64 90.737-87.114 221.661-24.468 321.303 30.806 48.995 83.081 70.806 137.01 61.275 3.884 35.738 4.448 71.224 1.651 106.117-.745 9.298 6.592 17.279 15.966 17.279 8.257 0 15.26-6.349 15.931-14.723 2.979-37.164 2.358-74.931-1.822-112.936 58.049 18.127 119.809-1.817 154.513-57.013 62.667-99.672 54.149-230.594-24.467-321.302zm-271.691 304.269c-53.715-85.43-48.026-196.441 15.486-276.01 99.782 24.942 168.321 111.478 176.138 210.281 4.096 51.777-24.492 85.294-55.364 101.591-7.658-44.5-19.863-87.452-35.814-129.671l18.228-51.591c2.944-8.332-1.424-17.472-9.756-20.416-8.334-2.945-17.473 1.424-20.416 9.756l-6.315 17.874c-9.22-20.715-19.427-41.479-30.607-62.231-4.19-7.779-13.894-10.688-21.674-6.498-7.78 4.191-10.688 13.895-6.498 21.674 26.447 49.093 47.24 98.148 62.055 146.336l-33.63-11.615c-8.351-2.884-17.462 1.547-20.347 9.9-2.885 8.352 1.548 17.462 9.9 20.347l54.414 18.794c3.934 16.059 7.163 31.839 9.808 48.059-41.016 7.77-81.287-7.897-105.608-46.58zm269.068 0c-21.638 34.415-56.13 51.077-93.769 48.156 35.342-29.122 51.794-71.309 48.226-116.409-4.538-57.358-27.41-113.015-66.376-157.24 27.752-24.287 60.911-41.638 96.433-50.518 63.849 79.992 68.9 191.061 15.486 276.011z"/></svg>