<svg width="79" height="29" viewBox="0 0 79 29" fill="none" xmlns="http://www.w3.org/2000/svg">
<rect width="79" height="29" rx="3" fill="#C4C4C4"/>
<path d="M51 11.698L39.5 6.258V4H41V3H39.5V1H38.5V3H37V4H38.5V6.258L30.471 10.0605L27 11.698V12.5H30.5V25H36.5V17.5H41.5V25H47.5V12.5H51V11.698Z" fill="black" fill-opacity="0.38"/>
<path d="M27.2891 16.8809C27 17.2949 26.5957 17.6055 26.0762 17.8125C25.5605 18.0156 24.959 18.1172 24.2715 18.1172C23.5762 18.1172 22.959 17.9551 22.4199 17.6309C21.8809 17.3027 21.4629 16.8379 21.166 16.2363C20.873 15.6348 20.7227 14.9375 20.7148 14.1445V13.4004C20.7148 12.1152 21.0137 11.1191 21.6113 10.4121C22.2129 9.70508 23.0566 9.35156 24.1426 9.35156C25.0332 9.35156 25.75 9.58008 26.293 10.0371C26.8359 10.4902 27.168 11.1348 27.2891 11.9707H26.1641C25.9531 10.8418 25.2812 10.2773 24.1484 10.2773C23.3945 10.2773 22.8223 10.543 22.4316 11.0742C22.0449 11.6016 21.8496 12.3672 21.8457 13.3711V14.0684C21.8457 15.0254 22.0645 15.7871 22.502 16.3535C22.9395 16.916 23.5312 17.1973 24.2773 17.1973C24.6992 17.1973 25.0684 17.1504 25.3848 17.0566C25.7012 16.9629 25.9629 16.8047 26.1699 16.582V14.666H24.1953V13.752H27.2891V16.8809ZM32.9141 18C32.8516 17.875 32.8008 17.6523 32.7617 17.332C32.2578 17.8555 31.6562 18.1172 30.957 18.1172C30.332 18.1172 29.8184 17.9414 29.416 17.5898C29.0176 17.2344 28.8184 16.7852 28.8184 16.2422C28.8184 15.582 29.0684 15.0703 29.5684 14.707C30.0723 14.3398 30.7793 14.1562 31.6895 14.1562H32.7441V13.6582C32.7441 13.2793 32.6309 12.9785 32.4043 12.7559C32.1777 12.5293 31.8438 12.416 31.4023 12.416C31.0156 12.416 30.6914 12.5137 30.4297 12.709C30.168 12.9043 30.0371 13.1406 30.0371 13.418H28.9473C28.9473 13.1016 29.0586 12.7969 29.2812 12.5039C29.5078 12.207 29.8125 11.9727 30.1953 11.8008C30.582 11.6289 31.0059 11.543 31.4668 11.543C32.1973 11.543 32.7695 11.7266 33.1836 12.0938C33.5977 12.457 33.8125 12.959 33.8281 13.5996V16.5176C33.8281 17.0996 33.9023 17.5625 34.0508 17.9062V18H32.9141ZM31.1152 17.1738C31.4551 17.1738 31.7773 17.0859 32.082 16.9102C32.3867 16.7344 32.6074 16.5059 32.7441 16.2246V14.9238H31.8945C30.5664 14.9238 29.9023 15.3125 29.9023 16.0898C29.9023 16.4297 30.0156 16.6953 30.2422 16.8867C30.4688 17.0781 30.7598 17.1738 31.1152 17.1738ZM36.7051 18H35.6211V9H36.7051V18ZM41.0762 18.1172C40.2168 18.1172 39.5176 17.8359 38.9785 17.2734C38.4395 16.707 38.1699 15.9512 38.1699 15.0059V14.8066C38.1699 14.1777 38.2891 13.6172 38.5273 13.125C38.7695 12.6289 39.1055 12.2422 39.5352 11.9648C39.9688 11.6836 40.4375 11.543 40.9414 11.543C41.7656 11.543 42.4062 11.8145 42.8633 12.3574C43.3203 12.9004 43.5488 13.6777 43.5488 14.6895V15.1406H39.2539C39.2695 15.7656 39.4512 16.2715 39.7988 16.6582C40.1504 17.041 40.5957 17.2324 41.1348 17.2324C41.5176 17.2324 41.8418 17.1543 42.1074 16.998C42.373 16.8418 42.6055 16.6348 42.8047 16.377L43.4668 16.8926C42.9355 17.709 42.1387 18.1172 41.0762 18.1172ZM40.9414 12.4336C40.5039 12.4336 40.1367 12.5938 39.8398 12.9141C39.543 13.2305 39.3594 13.6758 39.2891 14.25H42.4648V14.168C42.4336 13.6172 42.2852 13.1914 42.0195 12.8906C41.7539 12.5859 41.3945 12.4336 40.9414 12.4336ZM47.873 12.6328C47.709 12.6055 47.5312 12.5918 47.3398 12.5918C46.6289 12.5918 46.1465 12.8945 45.8926 13.5V18H44.8086V11.6602H45.8633L45.8809 12.3926C46.2363 11.8262 46.7402 11.543 47.3926 11.543C47.6035 11.543 47.7637 11.5703 47.873 11.625V12.6328ZM50.0527 18H48.9688V11.6602H50.0527V18ZM48.8809 9.97852C48.8809 9.80273 48.9336 9.6543 49.0391 9.5332C49.1484 9.41211 49.3086 9.35156 49.5195 9.35156C49.7305 9.35156 49.8906 9.41211 50 9.5332C50.1094 9.6543 50.1641 9.80273 50.1641 9.97852C50.1641 10.1543 50.1094 10.3008 50 10.418C49.8906 10.5352 49.7305 10.5938 49.5195 10.5938C49.3086 10.5938 49.1484 10.5352 49.0391 10.418C48.9336 10.3008 48.8809 10.1543 48.8809 9.97852ZM55.707 18C55.6445 17.875 55.5938 17.6523 55.5547 17.332C55.0508 17.8555 54.4492 18.1172 53.75 18.1172C53.125 18.1172 52.6113 17.9414 52.209 17.5898C51.8105 17.2344 51.6113 16.7852 51.6113 16.2422C51.6113 15.582 51.8613 15.0703 52.3613 14.707C52.8652 14.3398 53.5723 14.1562 54.4824 14.1562H55.5371V13.6582C55.5371 13.2793 55.4238 12.9785 55.1973 12.7559C54.9707 12.5293 54.6367 12.416 54.1953 12.416C53.8086 12.416 53.4844 12.5137 53.2227 12.709C52.9609 12.9043 52.8301 13.1406 52.8301 13.418H51.7402C51.7402 13.1016 51.8516 12.7969 52.0742 12.5039C52.3008 12.207 52.6055 11.9727 52.9883 11.8008C53.375 11.6289 53.7988 11.543 54.2598 11.543C54.9902 11.543 55.5625 11.7266 55.9766 12.0938C56.3906 12.457 56.6055 12.959 56.6211 13.5996V16.5176C56.6211 17.0996 56.6953 17.5625 56.8438 17.9062V18H55.707ZM53.9082 17.1738C54.248 17.1738 54.5703 17.0859 54.875 16.9102C55.1797 16.7344 55.4004 16.5059 55.5371 16.2246V14.9238H54.6875C53.3594 14.9238 52.6953 15.3125 52.6953 16.0898C52.6953 16.4297 52.8086 16.6953 53.0352 16.8867C53.2617 17.0781 53.5527 17.1738 53.9082 17.1738Z" fill="black"/>
</svg>
