<svg width="22" height="21" viewBox="0 0 22 21" fill="none" xmlns="http://www.w3.org/2000/svg">
<path d="M10.5736 3.41675C9.60165 3.41675 8.81128 4.1829 8.81128 5.12509C8.81128 6.06729 9.60161 6.83344 10.5736 6.83344C11.5455 6.83344 12.3358 6.06729 12.3358 5.12509C12.3358 4.1829 11.5455 3.41675 10.5736 3.41675ZM10.5736 5.97925C10.0878 5.97925 9.69244 5.59595 9.69244 5.12509C9.69244 4.65424 10.0878 4.27094 10.5736 4.27094C11.0593 4.27094 11.4547 4.65424 11.4547 5.12509C11.4547 5.59595 11.0593 5.97925 10.5736 5.97925Z" fill="black"/>
<path d="M11.8953 7.6875H8.37076C8.12723 7.6875 7.93018 7.87853 7.93018 8.1146V9.82294C7.93018 10.059 8.12723 10.25 8.37076 10.25H8.81134V16.6563C8.81134 16.8924 9.00839 17.0834 9.25192 17.0834H11.8953C12.1388 17.0834 12.3359 16.8924 12.3359 16.6563V8.1146C12.3359 7.87853 12.1388 7.6875 11.8953 7.6875ZM11.4547 16.2292H9.69241V9.8229C9.69241 9.58683 9.49536 9.39581 9.25183 9.39581H8.81125V8.54165H11.4547V16.2292H11.4547Z" fill="black"/>
<path d="M10.5736 0C4.74341 0 0 4.59825 0 10.25C0 15.9018 4.74341 20.5 10.5736 20.5C16.4038 20.5 21.1472 15.9018 21.1472 10.25C21.1472 4.59825 16.4038 0 10.5736 0ZM10.5736 19.6458C5.22914 19.6458 0.881119 15.4309 0.881119 10.25C0.881119 5.0691 5.22914 0.854153 10.5736 0.854153C15.918 0.854153 20.2661 5.0691 20.2661 10.25C20.2661 15.4309 15.918 19.6458 10.5736 19.6458Z" fill="black"/>
</svg>
