<svg width="79" height="29" viewBox="0 0 79 29" fill="none" xmlns="http://www.w3.org/2000/svg">
<rect width="79" height="29" rx="3" fill="#C4C4C4"/>
<path opacity="0.38" d="M41.889 25.979L49.105 24.418C49.105 24.418 46.501 6.805 46.48 6.688C46.462 6.572 46.366 6.496 46.269 6.496C46.172 6.496 44.34 6.36 44.34 6.36C44.34 6.36 43.065 5.086 42.901 4.949C42.8656 4.91703 42.8246 4.89194 42.78 4.875L41.866 25.979H41.889ZM38.262 13.305C38.262 13.305 37.452 12.881 36.488 12.881C35.041 12.881 34.984 13.787 34.984 14.022C34.984 15.254 38.224 15.737 38.224 18.651C38.224 20.946 36.784 22.411 34.818 22.411C32.464 22.411 31.278 20.946 31.278 20.946L31.924 18.86C31.924 18.86 33.169 19.926 34.204 19.926C34.3295 19.9301 34.4547 19.9092 34.572 19.8643C34.6893 19.8195 34.7966 19.7517 34.8874 19.6649C34.9782 19.5781 35.0507 19.4741 35.1008 19.3588C35.1509 19.2436 35.1775 19.1196 35.179 18.994C35.179 17.375 32.525 17.3 32.525 14.635C32.491 12.398 34.096 10.219 37.352 10.219C38.609 10.219 39.227 10.58 39.227 10.58L38.282 13.295L38.262 13.305ZM37.722 2.83C37.858 2.83 37.993 2.868 38.127 2.965C37.143 3.43 36.063 4.604 35.619 6.957C34.9924 7.15956 34.3627 7.35225 33.73 7.535C34.249 5.75 35.503 2.84 37.722 2.84V2.83ZM38.957 5.779V5.914C38.203 6.146 37.374 6.398 36.563 6.65C37.029 4.873 37.896 4.005 38.648 3.679C38.841 4.18 38.957 4.855 38.957 5.779ZM39.496 3.545C40.19 3.619 40.637 4.412 40.925 5.3C40.576 5.414 40.19 5.531 39.767 5.666V5.414C39.767 4.662 39.671 4.043 39.496 3.543V3.545ZM42.488 4.834C42.468 4.834 42.428 4.855 42.41 4.855C42.392 4.855 42.121 4.93 41.696 5.065C41.273 3.832 40.52 2.695 39.188 2.695H39.073C38.687 2.209 38.221 2 37.817 2C34.711 2 33.227 5.877 32.762 7.846C31.568 8.211 30.699 8.482 30.602 8.52C29.927 8.733 29.908 8.752 29.83 9.39C29.755 9.852 28 23.453 28 23.453L41.561 26L42.488 4.834Z" fill="black"/>
<path d="M24.1211 19.0801H28.1641V20H22.9902V11.4688H24.1211V19.0801ZM28.9902 16.7715C28.9902 16.1504 29.1113 15.5918 29.3535 15.0957C29.5996 14.5996 29.9395 14.2168 30.373 13.9473C30.8105 13.6777 31.3086 13.543 31.8672 13.543C32.7305 13.543 33.4277 13.8418 33.959 14.4395C34.4941 15.0371 34.7617 15.832 34.7617 16.8242V16.9004C34.7617 17.5176 34.6426 18.0723 34.4043 18.5645C34.1699 19.0527 33.832 19.4336 33.3906 19.707C32.9531 19.9805 32.4492 20.1172 31.8789 20.1172C31.0195 20.1172 30.3223 19.8184 29.7871 19.2207C29.2559 18.623 28.9902 17.832 28.9902 16.8477V16.7715ZM30.0801 16.9004C30.0801 17.6035 30.2422 18.168 30.5664 18.5938C30.8945 19.0195 31.332 19.2324 31.8789 19.2324C32.4297 19.2324 32.8672 19.0176 33.1914 18.5879C33.5156 18.1543 33.6777 17.5488 33.6777 16.7715C33.6777 16.0762 33.5117 15.5137 33.1797 15.084C32.8516 14.6504 32.4141 14.4336 31.8672 14.4336C31.332 14.4336 30.9004 14.6465 30.5723 15.0723C30.2441 15.498 30.0801 16.1074 30.0801 16.9004ZM37.2402 13.6602V20.7324C37.2402 21.9512 36.6875 22.5605 35.582 22.5605C35.3438 22.5605 35.123 22.5254 34.9199 22.4551V21.5879C35.0449 21.6191 35.209 21.6348 35.4121 21.6348C35.6543 21.6348 35.8379 21.5684 35.9629 21.4355C36.0918 21.3066 36.1562 21.0801 36.1562 20.7559V13.6602H37.2402ZM36.0449 11.9785C36.0449 11.8066 36.0977 11.6602 36.2031 11.5391C36.3125 11.4141 36.4707 11.3516 36.6777 11.3516C36.8887 11.3516 37.0488 11.4121 37.1582 11.5332C37.2676 11.6543 37.3223 11.8027 37.3223 11.9785C37.3223 12.1543 37.2676 12.3008 37.1582 12.418C37.0488 12.5352 36.8887 12.5938 36.6777 12.5938C36.4668 12.5938 36.3086 12.5352 36.2031 12.418C36.0977 12.3008 36.0449 12.1543 36.0449 11.9785ZM42.9062 20C42.8438 19.875 42.793 19.6523 42.7539 19.332C42.25 19.8555 41.6484 20.1172 40.9492 20.1172C40.3242 20.1172 39.8105 19.9414 39.4082 19.5898C39.0098 19.2344 38.8105 18.7852 38.8105 18.2422C38.8105 17.582 39.0605 17.0703 39.5605 16.707C40.0645 16.3398 40.7715 16.1562 41.6816 16.1562H42.7363V15.6582C42.7363 15.2793 42.623 14.9785 42.3965 14.7559C42.1699 14.5293 41.8359 14.416 41.3945 14.416C41.0078 14.416 40.6836 14.5137 40.4219 14.709C40.1602 14.9043 40.0293 15.1406 40.0293 15.418H38.9395C38.9395 15.1016 39.0508 14.7969 39.2734 14.5039C39.5 14.207 39.8047 13.9727 40.1875 13.8008C40.5742 13.6289 40.998 13.543 41.459 13.543C42.1895 13.543 42.7617 13.7266 43.1758 14.0938C43.5898 14.457 43.8047 14.959 43.8203 15.5996V18.5176C43.8203 19.0996 43.8945 19.5625 44.043 19.9062V20H42.9062ZM41.1074 19.1738C41.4473 19.1738 41.7695 19.0859 42.0742 18.9102C42.3789 18.7344 42.5996 18.5059 42.7363 18.2246V16.9238H41.8867C40.5586 16.9238 39.8945 17.3125 39.8945 18.0898C39.8945 18.4297 40.0078 18.6953 40.2344 18.8867C40.4609 19.0781 40.752 19.1738 41.1074 19.1738ZM43.6562 11.1875C43.6562 11.6094 43.5352 11.9512 43.293 12.2129C43.0547 12.4746 42.7559 12.6055 42.3965 12.6055C42.2363 12.6055 42.0977 12.5859 41.9805 12.5469C41.8633 12.5078 41.709 12.4277 41.5176 12.3066C41.3301 12.1855 41.1934 12.1133 41.1074 12.0898C41.0254 12.0625 40.9297 12.0488 40.8203 12.0488C40.6602 12.0488 40.5234 12.1113 40.4102 12.2363C40.2969 12.3574 40.2402 12.5137 40.2402 12.7051L39.5137 12.6641C39.5137 12.2461 39.6309 11.9004 39.8652 11.627C40.1035 11.3535 40.4043 11.2168 40.7676 11.2168C40.9043 11.2168 41.0273 11.2363 41.1367 11.2754C41.2461 11.3145 41.3945 11.3906 41.582 11.5039C41.7695 11.6172 41.9121 11.6914 42.0098 11.7266C42.1113 11.7617 42.2227 11.7793 42.3438 11.7793C42.5117 11.7793 42.6504 11.7129 42.7598 11.5801C42.873 11.4473 42.9297 11.293 42.9297 11.1172L43.6562 11.1875ZM45.2324 16.7715C45.2324 16.1504 45.3535 15.5918 45.5957 15.0957C45.8418 14.5996 46.1816 14.2168 46.6152 13.9473C47.0527 13.6777 47.5508 13.543 48.1094 13.543C48.9727 13.543 49.6699 13.8418 50.2012 14.4395C50.7363 15.0371 51.0039 15.832 51.0039 16.8242V16.9004C51.0039 17.5176 50.8848 18.0723 50.6465 18.5645C50.4121 19.0527 50.0742 19.4336 49.6328 19.707C49.1953 19.9805 48.6914 20.1172 48.1211 20.1172C47.2617 20.1172 46.5645 19.8184 46.0293 19.2207C45.498 18.623 45.2324 17.832 45.2324 16.8477V16.7715ZM46.3223 16.9004C46.3223 17.6035 46.4844 18.168 46.8086 18.5938C47.1367 19.0195 47.5742 19.2324 48.1211 19.2324C48.6719 19.2324 49.1094 19.0176 49.4336 18.5879C49.7578 18.1543 49.9199 17.5488 49.9199 16.7715C49.9199 16.0762 49.7539 15.5137 49.4219 15.084C49.0938 14.6504 48.6562 14.4336 48.1094 14.4336C47.5742 14.4336 47.1426 14.6465 46.8145 15.0723C46.4863 15.498 46.3223 16.1074 46.3223 16.9004Z" fill="black"/>
</svg>
