<svg width="87" height="37" viewBox="0 0 87 37" fill="none" xmlns="http://www.w3.org/2000/svg">
<g filter="url(#filter0_d)">
<rect x="4" width="79" height="29" rx="3" fill="#C4C4C4"/>
<path opacity="0.38" d="M37 20C35.9 20 35.01 20.9 35.01 22C35.01 23.1 35.9 24 37 24C38.1 24 39 23.1 39 22C39 20.9 38.1 20 37 20ZM31 4V6H33L36.6 13.59L35.25 16.04C35.09 16.32 35 16.65 35 17C35 18.1 35.9 19 37 19H49V17H37.42C37.28 17 37.17 16.89 37.17 16.75L37.2 16.63L38.1 15H45.55C46.3 15 46.96 14.59 47.3 13.97L50.88 7.48C50.96 7.34 51 7.17 51 7C51 6.45 50.55 6 50 6H35.21L34.27 4H31ZM47 20C45.9 20 45.01 20.9 45.01 22C45.01 23.1 45.9 24 47 24C48.1 24 49 23.1 49 22C49 20.9 48.1 20 47 20Z" fill="black"/>
<path d="M22.4434 9.46875L25.2324 16.4297L28.0215 9.46875H29.4805V18H28.3555V14.6777L28.4609 11.0918L25.6602 18H24.7988L22.0039 11.1094L22.1152 14.6777V18H20.9902V9.46875H22.4434ZM33.9277 18.1172C33.0684 18.1172 32.3691 17.8359 31.8301 17.2734C31.291 16.707 31.0215 15.9512 31.0215 15.0059V14.8066C31.0215 14.1777 31.1406 13.6172 31.3789 13.125C31.6211 12.6289 31.957 12.2422 32.3867 11.9648C32.8203 11.6836 33.2891 11.543 33.793 11.543C34.6172 11.543 35.2578 11.8145 35.7148 12.3574C36.1719 12.9004 36.4004 13.6777 36.4004 14.6895V15.1406H32.1055C32.1211 15.7656 32.3027 16.2715 32.6504 16.6582C33.002 17.041 33.4473 17.2324 33.9863 17.2324C34.3691 17.2324 34.6934 17.1543 34.959 16.998C35.2246 16.8418 35.457 16.6348 35.6562 16.377L36.3184 16.8926C35.7871 17.709 34.9902 18.1172 33.9277 18.1172ZM33.793 12.4336C33.3555 12.4336 32.9883 12.5938 32.6914 12.9141C32.3945 13.2305 32.2109 13.6758 32.1406 14.25H35.3164V14.168C35.2852 13.6172 35.1367 13.1914 34.8711 12.8906C34.6055 12.5859 34.2461 12.4336 33.793 12.4336ZM40.7246 12.6328C40.5605 12.6055 40.3828 12.5918 40.1914 12.5918C39.4805 12.5918 38.998 12.8945 38.7441 13.5V18H37.6602V11.6602H38.7148L38.7324 12.3926C39.0879 11.8262 39.5918 11.543 40.2441 11.543C40.4551 11.543 40.6152 11.5703 40.7246 11.625V12.6328ZM44.1523 17.2324C44.5391 17.2324 44.877 17.1152 45.166 16.8809C45.4551 16.6465 45.6152 16.3535 45.6465 16.002H46.6719C46.6523 16.3652 46.5273 16.7109 46.2969 17.0391C46.0664 17.3672 45.7578 17.6289 45.3711 17.8242C44.9883 18.0195 44.582 18.1172 44.1523 18.1172C43.2891 18.1172 42.6016 17.8301 42.0898 17.2559C41.582 16.6777 41.3281 15.8887 41.3281 14.8887V14.707C41.3281 14.0898 41.4414 13.541 41.668 13.0605C41.8945 12.5801 42.2188 12.207 42.6406 11.9414C43.0664 11.6758 43.5684 11.543 44.1465 11.543C44.8574 11.543 45.4473 11.7559 45.916 12.1816C46.3887 12.6074 46.6406 13.1602 46.6719 13.8398H45.6465C45.6152 13.4297 45.459 13.0938 45.1777 12.832C44.9004 12.5664 44.5566 12.4336 44.1465 12.4336C43.5957 12.4336 43.168 12.6328 42.8633 13.0312C42.5625 13.4258 42.4121 13.998 42.4121 14.748V14.9531C42.4121 15.6836 42.5625 16.2461 42.8633 16.6406C43.1641 17.0352 43.5938 17.2324 44.1523 17.2324ZM51.8047 18C51.7422 17.875 51.6914 17.6523 51.6523 17.332C51.1484 17.8555 50.5469 18.1172 49.8477 18.1172C49.2227 18.1172 48.709 17.9414 48.3066 17.5898C47.9082 17.2344 47.709 16.7852 47.709 16.2422C47.709 15.582 47.959 15.0703 48.459 14.707C48.9629 14.3398 49.6699 14.1562 50.5801 14.1562H51.6348V13.6582C51.6348 13.2793 51.5215 12.9785 51.2949 12.7559C51.0684 12.5293 50.7344 12.416 50.293 12.416C49.9062 12.416 49.582 12.5137 49.3203 12.709C49.0586 12.9043 48.9277 13.1406 48.9277 13.418H47.8379C47.8379 13.1016 47.9492 12.7969 48.1719 12.5039C48.3984 12.207 48.7031 11.9727 49.0859 11.8008C49.4727 11.6289 49.8965 11.543 50.3574 11.543C51.0879 11.543 51.6602 11.7266 52.0742 12.0938C52.4883 12.457 52.7031 12.959 52.7188 13.5996V16.5176C52.7188 17.0996 52.793 17.5625 52.9414 17.9062V18H51.8047ZM50.0059 17.1738C50.3457 17.1738 50.668 17.0859 50.9727 16.9102C51.2773 16.7344 51.498 16.5059 51.6348 16.2246V14.9238H50.7852C49.457 14.9238 48.793 15.3125 48.793 16.0898C48.793 16.4297 48.9062 16.6953 49.1328 16.8867C49.3594 17.0781 49.6504 17.1738 50.0059 17.1738ZM54.1543 14.7773C54.1543 13.8047 54.3848 13.0234 54.8457 12.4336C55.3066 11.8398 55.9102 11.543 56.6562 11.543C57.3984 11.543 57.9863 11.7969 58.4199 12.3047V9H59.5039V18H58.5078L58.4551 17.3203C58.0215 17.8516 57.418 18.1172 56.6445 18.1172C55.9102 18.1172 55.3105 17.8164 54.8457 17.2148C54.3848 16.6133 54.1543 15.8281 54.1543 14.8594V14.7773ZM55.2383 14.9004C55.2383 15.6191 55.3867 16.1816 55.6836 16.5879C55.9805 16.9941 56.3906 17.1973 56.9141 17.1973C57.6016 17.1973 58.1035 16.8887 58.4199 16.2715V13.3594C58.0957 12.7617 57.5977 12.4629 56.9258 12.4629C56.3945 12.4629 55.9805 12.668 55.6836 13.0781C55.3867 13.4883 55.2383 14.0957 55.2383 14.9004ZM60.9043 14.7715C60.9043 14.1504 61.0254 13.5918 61.2676 13.0957C61.5137 12.5996 61.8535 12.2168 62.2871 11.9473C62.7246 11.6777 63.2227 11.543 63.7812 11.543C64.6445 11.543 65.3418 11.8418 65.873 12.4395C66.4082 13.0371 66.6758 13.832 66.6758 14.8242V14.9004C66.6758 15.5176 66.5566 16.0723 66.3184 16.5645C66.084 17.0527 65.7461 17.4336 65.3047 17.707C64.8672 17.9805 64.3633 18.1172 63.793 18.1172C62.9336 18.1172 62.2363 17.8184 61.7012 17.2207C61.1699 16.623 60.9043 15.832 60.9043 14.8477V14.7715ZM61.9941 14.9004C61.9941 15.6035 62.1562 16.168 62.4805 16.5938C62.8086 17.0195 63.2461 17.2324 63.793 17.2324C64.3438 17.2324 64.7812 17.0176 65.1055 16.5879C65.4297 16.1543 65.5918 15.5488 65.5918 14.7715C65.5918 14.0762 65.4258 13.5137 65.0938 13.084C64.7656 12.6504 64.3281 12.4336 63.7812 12.4336C63.2461 12.4336 62.8145 12.6465 62.4863 13.0723C62.1582 13.498 61.9941 14.1074 61.9941 14.9004Z" fill="black"/>
</g>
<defs>
<filter id="filter0_d" x="0" y="0" width="87" height="37" filterUnits="userSpaceOnUse" color-interpolation-filters="sRGB">
<feFlood flood-opacity="0" result="BackgroundImageFix"/>
<feColorMatrix in="SourceAlpha" type="matrix" values="0 0 0 0 0 0 0 0 0 0 0 0 0 0 0 0 0 0 127 0"/>
<feOffset dy="4"/>
<feGaussianBlur stdDeviation="2"/>
<feColorMatrix type="matrix" values="0 0 0 0 0 0 0 0 0 0 0 0 0 0 0 0 0 0 0.25 0"/>
<feBlend mode="normal" in2="BackgroundImageFix" result="effect1_dropShadow"/>
<feBlend mode="normal" in="SourceGraphic" in2="effect1_dropShadow" result="shape"/>
</filter>
</defs>
</svg>
