<svg width="69" height="39" viewBox="0 0 69 39" fill="none" xmlns="http://www.w3.org/2000/svg">
<path d="M0 0V39H69V0H0ZM26.136 25.9997H8.3628V6.50059H26.1349V25.9997H26.136ZM40.7721 30.8765H28.2267V2.4375H40.7721V30.8765ZM42.8628 21.3064C44.3363 22.2393 46.1838 22.7495 48.0907 22.7503C52.7103 22.7503 56.4524 19.8395 56.4524 16.2497C56.4524 12.6608 52.7091 9.75 48.0907 9.75C46.1838 9.75076 44.3363 10.261 42.8628 11.1939V6.50059H60.6349V25.9997H42.8628V21.3064ZM42.8628 28.4372H63.7721V4.06309H42.8628V1.62559H66.9081V30.8756H42.8628V28.4372ZM2.0907 1.62559H26.1349V4.06309H5.22675V28.4372H26.136V30.8756H2.0907V1.62559Z" fill="black"/>
<path d="M17.9995 19.7501C17.4669 19.7479 16.9573 19.5887 16.5824 19.3074C16.2075 19.0261 15.998 18.6456 15.9997 18.2495H14.0011C14.0005 18.9106 14.2947 19.5532 14.8374 20.0766C15.3802 20.6001 16.141 20.975 17.0007 21.1426V22H19.0004V21.1426C19.86 20.9747 20.6205 20.5998 21.1632 20.0764C21.7059 19.553 22.0002 18.9105 22 18.2495C22 16.596 20.206 15.2502 18.0006 15.2502C17.4682 15.248 16.9588 15.0889 16.5839 14.8078C16.2091 14.5266 15.9994 14.1464 16.0008 13.7505C16.0008 12.9217 16.8984 12.2499 18.0006 12.2499C19.1038 12.2499 20.0003 12.9217 20.0003 13.7505H21.9989C21.9995 13.0894 21.7053 12.4468 21.1626 11.9234C20.6198 11.3999 19.859 11.025 18.9993 10.8574V10H16.9996V10.8574C16.14 11.0253 15.3795 11.4002 14.8368 11.9236C14.2941 12.447 13.9998 13.0895 14 13.7505C14 15.404 15.794 16.7498 17.9995 16.7498C19.1027 16.7498 19.9992 17.4224 19.9992 18.2495C20.0012 18.6457 19.7918 19.0263 19.4168 19.3076C19.0418 19.589 18.5321 19.7481 17.9995 19.7501Z" fill="black"/>
</svg>
