<svg width="79" height="29" viewBox="0 0 79 29" fill="none" xmlns="http://www.w3.org/2000/svg">
<rect width="79" height="29" rx="3" fill="#C4C4C4"/>
<path opacity="0.38" d="M45.6973 9.44996L39.9045 4.32269C39.6754 4.11731 39.3638 4.00124 39.0384 4.00001C38.713 3.99878 38.4003 4.1125 38.1692 4.31614L38.1618 4.32269L32.3936 9.44996H29.2273C28.9018 9.44996 28.5896 9.5649 28.3595 9.76948C28.1293 9.97407 28 10.2515 28 10.5409V23.6318C28 23.9211 28.1293 24.1986 28.3595 24.4032C28.5896 24.6078 28.9018 24.7227 29.2273 24.7227H48.8636C49.1891 24.7227 49.5013 24.6078 49.7315 24.4032C49.9616 24.1986 50.0909 23.9211 50.0909 23.6318V10.5409C50.0909 10.2515 49.9616 9.97407 49.7315 9.76948C49.5013 9.5649 49.1891 9.44996 48.8636 9.44996H45.6973ZM39.0455 6.63542L42.2118 9.44996H35.8791L39.0455 6.63542ZM47.6364 22.5409H30.4545V11.6318H47.6364V22.5409ZM36.5909 14.9045C36.5909 15.1938 36.4616 15.4713 36.2314 15.6759C36.0013 15.8805 35.6891 15.9954 35.3636 15.9954C35.0381 15.9954 34.726 15.8805 34.4958 15.6759C34.2657 15.4713 34.1364 15.1938 34.1364 14.9045C34.1364 14.6152 34.2657 14.3377 34.4958 14.1331C34.726 13.9285 35.0381 13.8136 35.3636 13.8136C35.6891 13.8136 36.0013 13.9285 36.2314 14.1331C36.4616 14.3377 36.5909 14.6152 36.5909 14.9045ZM45.1818 20.3591H35.3636L37.2045 17.0863L38.4318 19.2681L41.5 13.8136L45.1818 20.3591Z" fill="black"/>
<path d="M19.1152 16.6602V20H17.9902V11.4688H21.1367C22.0703 11.4688 22.8008 11.707 23.3281 12.1836C23.8594 12.6602 24.125 13.291 24.125 14.0762C24.125 14.9043 23.8652 15.543 23.3457 15.9922C22.8301 16.4375 22.0898 16.6602 21.125 16.6602H19.1152ZM19.1152 15.7402H21.1367C21.7383 15.7402 22.1992 15.5996 22.5195 15.3184C22.8398 15.0332 23 14.623 23 14.0879C23 13.5801 22.8398 13.1738 22.5195 12.8691C22.1992 12.5645 21.7598 12.4062 21.2012 12.3945H19.1152V15.7402ZM29.2344 20C29.1719 19.875 29.1211 19.6523 29.082 19.332C28.5781 19.8555 27.9766 20.1172 27.2773 20.1172C26.6523 20.1172 26.1387 19.9414 25.7363 19.5898C25.3379 19.2344 25.1387 18.7852 25.1387 18.2422C25.1387 17.582 25.3887 17.0703 25.8887 16.707C26.3926 16.3398 27.0996 16.1562 28.0098 16.1562H29.0645V15.6582C29.0645 15.2793 28.9512 14.9785 28.7246 14.7559C28.498 14.5293 28.1641 14.416 27.7227 14.416C27.3359 14.416 27.0117 14.5137 26.75 14.709C26.4883 14.9043 26.3574 15.1406 26.3574 15.418H25.2676C25.2676 15.1016 25.3789 14.7969 25.6016 14.5039C25.8281 14.207 26.1328 13.9727 26.5156 13.8008C26.9023 13.6289 27.3262 13.543 27.7871 13.543C28.5176 13.543 29.0898 13.7266 29.5039 14.0938C29.918 14.457 30.1328 14.959 30.1484 15.5996V18.5176C30.1484 19.0996 30.2227 19.5625 30.3711 19.9062V20H29.2344ZM27.4355 19.1738C27.7754 19.1738 28.0977 19.0859 28.4023 18.9102C28.707 18.7344 28.9277 18.5059 29.0645 18.2246V16.9238H28.2148C26.8867 16.9238 26.2227 17.3125 26.2227 18.0898C26.2227 18.4297 26.3359 18.6953 26.5625 18.8867C26.7891 19.0781 27.0801 19.1738 27.4355 19.1738ZM37.2031 16.9004C37.2031 17.8652 36.9824 18.6426 36.541 19.2324C36.0996 19.8223 35.502 20.1172 34.748 20.1172C33.9785 20.1172 33.373 19.873 32.9316 19.3848V22.4375H31.8477V13.6602H32.8379L32.8906 14.3633C33.332 13.8164 33.9453 13.543 34.7305 13.543C35.4922 13.543 36.0938 13.8301 36.5352 14.4043C36.9805 14.9785 37.2031 15.7773 37.2031 16.8008V16.9004ZM36.1191 16.7773C36.1191 16.0625 35.9668 15.498 35.6621 15.084C35.3574 14.6699 34.9395 14.4629 34.4082 14.4629C33.752 14.4629 33.2598 14.7539 32.9316 15.3359V18.3652C33.2559 18.9434 33.752 19.2324 34.4199 19.2324C34.9395 19.2324 35.3516 19.0273 35.6562 18.6172C35.9648 18.2031 36.1191 17.5898 36.1191 16.7773ZM41.2168 20.1172C40.3574 20.1172 39.6582 19.8359 39.1191 19.2734C38.5801 18.707 38.3105 17.9512 38.3105 17.0059V16.8066C38.3105 16.1777 38.4297 15.6172 38.668 15.125C38.9102 14.6289 39.2461 14.2422 39.6758 13.9648C40.1094 13.6836 40.5781 13.543 41.082 13.543C41.9062 13.543 42.5469 13.8145 43.0039 14.3574C43.4609 14.9004 43.6895 15.6777 43.6895 16.6895V17.1406H39.3945C39.4102 17.7656 39.5918 18.2715 39.9395 18.6582C40.291 19.041 40.7363 19.2324 41.2754 19.2324C41.6582 19.2324 41.9824 19.1543 42.248 18.998C42.5137 18.8418 42.7461 18.6348 42.9453 18.377L43.6074 18.8926C43.0762 19.709 42.2793 20.1172 41.2168 20.1172ZM41.082 14.4336C40.6445 14.4336 40.2773 14.5938 39.9805 14.9141C39.6836 15.2305 39.5 15.6758 39.4297 16.25H42.6055V16.168C42.5742 15.6172 42.4258 15.1914 42.1602 14.8906C41.8945 14.5859 41.5352 14.4336 41.082 14.4336ZM46.127 20H45.043V11H46.127V20ZM51.7812 20C51.7188 19.875 51.668 19.6523 51.6289 19.332C51.125 19.8555 50.5234 20.1172 49.8242 20.1172C49.1992 20.1172 48.6855 19.9414 48.2832 19.5898C47.8848 19.2344 47.6855 18.7852 47.6855 18.2422C47.6855 17.582 47.9355 17.0703 48.4355 16.707C48.9395 16.3398 49.6465 16.1562 50.5566 16.1562H51.6113V15.6582C51.6113 15.2793 51.498 14.9785 51.2715 14.7559C51.0449 14.5293 50.7109 14.416 50.2695 14.416C49.8828 14.416 49.5586 14.5137 49.2969 14.709C49.0352 14.9043 48.9043 15.1406 48.9043 15.418H47.8145C47.8145 15.1016 47.9258 14.7969 48.1484 14.5039C48.375 14.207 48.6797 13.9727 49.0625 13.8008C49.4492 13.6289 49.873 13.543 50.334 13.543C51.0645 13.543 51.6367 13.7266 52.0508 14.0938C52.4648 14.457 52.6797 14.959 52.6953 15.5996V18.5176C52.6953 19.0996 52.7695 19.5625 52.918 19.9062V20H51.7812ZM49.9824 19.1738C50.3223 19.1738 50.6445 19.0859 50.9492 18.9102C51.2539 18.7344 51.4746 18.5059 51.6113 18.2246V16.9238H50.7617C49.4336 16.9238 48.7695 17.3125 48.7695 18.0898C48.7695 18.4297 48.8828 18.6953 49.1094 18.8867C49.3359 19.0781 49.627 19.1738 49.9824 19.1738ZM57.459 14.6328C57.2949 14.6055 57.1172 14.5918 56.9258 14.5918C56.2148 14.5918 55.7324 14.8945 55.4785 15.5V20H54.3945V13.6602H55.4492L55.4668 14.3926C55.8223 13.8262 56.3262 13.543 56.9785 13.543C57.1895 13.543 57.3496 13.5703 57.459 13.625V14.6328ZM59.6387 20H58.5547V13.6602H59.6387V20ZM58.4668 11.9785C58.4668 11.8027 58.5195 11.6543 58.625 11.5332C58.7344 11.4121 58.8945 11.3516 59.1055 11.3516C59.3164 11.3516 59.4766 11.4121 59.5859 11.5332C59.6953 11.6543 59.75 11.8027 59.75 11.9785C59.75 12.1543 59.6953 12.3008 59.5859 12.418C59.4766 12.5352 59.3164 12.5938 59.1055 12.5938C58.8945 12.5938 58.7344 12.5352 58.625 12.418C58.5195 12.3008 58.4668 12.1543 58.4668 11.9785ZM65.293 20C65.2305 19.875 65.1797 19.6523 65.1406 19.332C64.6367 19.8555 64.0352 20.1172 63.3359 20.1172C62.7109 20.1172 62.1973 19.9414 61.7949 19.5898C61.3965 19.2344 61.1973 18.7852 61.1973 18.2422C61.1973 17.582 61.4473 17.0703 61.9473 16.707C62.4512 16.3398 63.1582 16.1562 64.0684 16.1562H65.123V15.6582C65.123 15.2793 65.0098 14.9785 64.7832 14.7559C64.5566 14.5293 64.2227 14.416 63.7812 14.416C63.3945 14.416 63.0703 14.5137 62.8086 14.709C62.5469 14.9043 62.416 15.1406 62.416 15.418H61.3262C61.3262 15.1016 61.4375 14.7969 61.6602 14.5039C61.8867 14.207 62.1914 13.9727 62.5742 13.8008C62.9609 13.6289 63.3848 13.543 63.8457 13.543C64.5762 13.543 65.1484 13.7266 65.5625 14.0938C65.9766 14.457 66.1914 14.959 66.207 15.5996V18.5176C66.207 19.0996 66.2812 19.5625 66.4297 19.9062V20H65.293ZM63.4941 19.1738C63.834 19.1738 64.1562 19.0859 64.4609 18.9102C64.7656 18.7344 64.9863 18.5059 65.123 18.2246V16.9238H64.2734C62.9453 16.9238 62.2812 17.3125 62.2812 18.0898C62.2812 18.4297 62.3945 18.6953 62.6211 18.8867C62.8477 19.0781 63.1387 19.1738 63.4941 19.1738Z" fill="black"/>
</svg>
